<svg width="73" height="70" viewBox="0 0 73 70" fill="none" xmlns="http://www.w3.org/2000/svg">
<g clip-path="url(#clip0_265_6068)">
<path d="M49.345 55.385C50.035 54.265 52.065 53.785 53.265 53.125C56.075 51.835 57.755 49.965 59.005 47.045C60.905 42.475 61.605 42.985 63.425 47.245C64.685 50.145 66.415 51.945 69.275 53.225C70.425 53.895 72.495 54.295 72.905 55.585C72.495 56.875 70.415 57.265 69.275 57.945C66.425 59.225 64.695 61.025 63.425 63.925C62.105 66.855 61.185 69.375 59.365 64.905C58.445 62.725 57.265 60.535 55.265 59.185C53.505 57.885 50.445 56.985 49.615 56.135C49.415 55.945 49.285 55.725 49.335 55.475L49.355 55.405L49.345 55.385Z" fill="#F19F42"/>
<path d="M5.09499 35.425C6.26499 34.145 9.31499 33.515 11.145 32.905C21.935 29.655 26.455 25.065 29.685 14.165C31.825 6.475 33.285 6.325 35.455 14.165C39.045 27.435 45.955 30.635 58.345 34.375C60.645 35.365 60.655 36.365 58.345 37.355C45.995 41.055 38.985 44.365 35.455 57.565C33.415 64.845 31.955 65.725 29.755 57.795C26.475 46.575 21.885 41.965 10.675 38.685C9.23499 38.115 4.39499 37.215 5.03499 35.495L5.08499 35.415L5.09499 35.425Z" fill="#F19F42"/>
<path d="M45.655 52.205C54.385 50.505 56.085 48.805 57.785 40.075C57.835 39.845 58.165 39.845 58.215 40.075C59.915 48.805 61.615 50.505 70.345 52.205C70.575 52.255 70.575 52.585 70.345 52.635C61.615 54.335 59.915 56.035 58.215 64.765C58.165 64.995 57.835 64.995 57.785 64.765C56.085 56.035 54.385 54.335 45.655 52.635C45.425 52.585 45.425 52.255 45.655 52.205Z" fill="white" stroke="#7A34F3" stroke-width="2" stroke-linecap="round" stroke-linejoin="round"/>
<path d="M1.64498 30.595C20.325 26.855 24.285 22.905 28.025 4.215C28.165 3.495 29.195 3.495 29.335 4.215C33.075 22.895 37.025 26.855 55.715 30.595C56.435 30.735 56.435 31.765 55.715 31.905C37.035 35.645 33.075 39.595 29.335 58.285C29.195 59.005 28.165 59.005 28.025 58.285C24.285 39.605 20.335 35.645 1.64498 31.905C0.92498 31.765 0.92498 30.735 1.64498 30.595Z" fill="white" stroke="#7A34F3" stroke-width="2" stroke-linecap="round" stroke-linejoin="round"/>
</g>
<defs>
<clipPath id="clip0_265_6068">
<rect width="72.79" height="64.65" fill="white" transform="translate(0.10498 2.675)"/>
</clipPath>
</defs>
</svg>
