<svg width="71" height="70" viewBox="0 0 71 70" fill="none" xmlns="http://www.w3.org/2000/svg">
<g clip-path="url(#clip0_265_6070)">
<mask id="mask0_265_6070" style="mask-type:luminance" maskUnits="userSpaceOnUse" x="0" y="3" width="71" height="64">
<path d="M70.1148 3.545H0.974762V66.545H70.1148V3.545Z" fill="white"/>
</mask>
<g mask="url(#mask0_265_6070)">
<path d="M32.9848 7.315H65.3548C67.9848 7.315 70.1148 9.445 70.1148 12.075V61.775C70.1148 64.405 67.9848 66.535 65.3548 66.535H32.9848C30.3548 66.535 28.2248 64.405 28.2248 61.775V12.085C28.2248 9.455 30.3548 7.325 32.9848 7.325V7.315Z" fill="#F19F42"/>
<path d="M65.6048 50.145V61.625C23.6748 61.625 24.5748 61.635 24.5748 61.625C33.0048 61.615 40.4048 56.995 44.3548 50.145H65.6048Z" fill="white"/>
<path d="M65.6048 38.665V50.145H44.3548C46.3048 46.765 47.4248 42.845 47.4248 38.665H65.6048Z" fill="white"/>
<path d="M65.6048 27.175V38.655H47.4248C47.4248 34.475 46.3048 30.545 44.3548 27.175H65.6048Z" fill="white"/>
<path d="M65.6048 15.695V27.175H44.3548C40.4048 20.325 33.0148 15.705 24.5748 15.695H65.6048Z" fill="white"/>
</g>
<path d="M65.6048 4.215H24.5748V15.695H65.6048V4.215Z" fill="white"/>
<path d="M44.3448 27.175C46.2948 30.555 47.4248 34.475 47.4248 38.655C47.4248 42.835 46.3048 46.765 44.3448 50.135C40.3948 56.985 33.0048 61.605 24.5648 61.615H24.5248C11.9148 61.625 1.64477 51.325 1.64477 38.665C1.64477 26.005 11.9148 15.695 24.5348 15.695H24.5748C33.0148 15.705 40.4048 20.325 44.3548 27.175" fill="#F19F42"/>
<path d="M24.6448 50.745V48.075M24.6448 29.135V26.465M30.1148 31.085C30.0148 30.975 27.7148 29.065 24.6348 29.125C24.0348 29.135 23.3948 29.215 22.7248 29.425C19.0448 30.525 18.5348 34.785 21.1948 36.515C21.1948 36.515 23.8048 37.685 26.6948 38.745C33.6548 41.315 30.6548 48.085 25.0548 48.085C24.9148 48.085 24.7748 48.085 24.6348 48.075C22.0048 47.975 19.8148 46.775 18.4648 45.275M24.6448 61.385H24.6048C12.0848 61.385 1.88477 51.165 1.88477 38.615C1.88477 26.065 12.0748 15.845 24.6048 15.845H24.6448M24.6448 61.385V61.395C33.0148 61.375 40.3448 56.795 44.2648 50.005C46.2048 46.655 47.3148 42.755 47.3148 38.615M24.6448 61.385C24.6448 61.385 23.7548 61.385 65.3648 61.385V4.455H24.6448V15.845M24.6448 15.845C33.0148 15.855 40.3548 20.445 44.2648 27.235C46.2048 30.585 47.3148 34.475 47.3148 38.615M24.6448 15.845H65.3548M47.3148 38.615H65.3548M65.3548 49.995H44.2648M65.3548 27.225H44.2648" stroke="#7A34F3" stroke-width="2" stroke-linecap="round" stroke-linejoin="round"/>
</g>
<defs>
<clipPath id="clip0_265_6070">
<rect width="69.23" height="63.09" fill="white" transform="translate(0.884766 3.455)"/>
</clipPath>
</defs>
</svg>
