<svg width="63" height="72" viewBox="0 0 63 72" fill="none" xmlns="http://www.w3.org/2000/svg">
<g clip-path="url(#clip0_265_6071)">
<path d="M50.0649 19.3349C50.1249 30.6749 37.2549 37.9949 27.6249 31.9549C17.1149 25.6849 18.4349 9.9849 29.7449 5.4549C39.1249 1.3649 50.2349 8.9549 50.0649 19.1349V19.3349Z" fill="#F19F42"/>
<path d="M62.0049 66.1349C64.2449 60.7249 58.3249 53.7849 53.9349 49.6849C49.8249 45.9249 44.7549 43.0849 39.2949 42.0349C26.0549 38.8149 10.6549 49.6849 6.58488 60.5149C3.23488 69.4649 14.2249 71.0349 21.0149 71.4349C24.5549 71.6749 28.5649 71.7149 32.6649 71.7149C41.3849 71.4049 58.0049 72.9749 61.9649 66.2349L62.0149 66.1349H62.0049Z" fill="#F19F42"/>
<path d="M29.7449 31.0349C37.9629 31.0349 44.6249 24.3729 44.6249 16.1549C44.6249 7.9369 37.9629 1.2749 29.7449 1.2749C21.5269 1.2749 14.8649 7.9369 14.8649 16.1549C14.8649 24.3729 21.5269 31.0349 29.7449 31.0349Z" fill="white" stroke="#7A34F3" stroke-width="2" stroke-linecap="round" stroke-linejoin="round"/>
<path d="M57.7249 63.2149C58.5849 61.0149 57.6449 57.8349 55.5849 54.2549C50.1149 44.5349 39.0849 36.1349 27.3649 37.5049C22.0849 38.0149 17.0549 40.3149 12.9349 43.6349C7.23489 48.5649 2.47489 54.4649 1.51489 60.9649C1.40489 68.1749 12.0049 67.2149 17.4249 67.5549C25.9649 67.5549 37.2349 67.6549 45.3449 67.4849C50.3249 67.4849 56.9349 66.2949 57.6849 63.3149L57.7249 63.2149Z" fill="white" stroke="#7A34F3" stroke-width="2" stroke-linecap="round" stroke-linejoin="round"/>
</g>
<defs>
<clipPath id="clip0_265_6071">
<rect width="61.99" height="71.45" fill="white" transform="translate(0.504883 0.274902)"/>
</clipPath>
</defs>
</svg>
