<svg width="65" height="70" viewBox="0 0 65 70" fill="none" xmlns="http://www.w3.org/2000/svg">
<g clip-path="url(#clip0_265_6072)">
<path d="M30.2202 69.3C44.4912 69.3 56.0602 57.731 56.0602 43.46C56.0602 29.189 44.4912 17.62 30.2202 17.62C15.9492 17.62 4.38019 29.189 4.38019 43.46C4.38019 57.731 15.9492 69.3 30.2202 69.3Z" fill="#F19F42"/>
<path d="M27.5902 62.67C41.7066 62.67 53.1502 51.2264 53.1502 37.11C53.1502 22.9936 41.7066 11.55 27.5902 11.55C13.4738 11.55 2.0302 22.9936 2.0302 37.11C2.0302 51.2264 13.4738 62.67 27.5902 62.67Z" fill="white"/>
<path d="M51.5702 26.55C52.9602 29.72 53.7302 33.23 53.7302 36.91C53.7302 51.18 42.1102 62.8 27.8402 62.8C13.5702 62.8 1.9502 51.18 1.9502 36.91C1.9502 22.64 13.5602 11.02 27.8402 11.02C31.5202 11.02 35.0202 11.79 38.2002 13.18M27.8402 47.26V52.44M27.8402 21.38V26.56M33.0202 26.55H27.8402C24.9802 26.55 22.6602 28.87 22.6602 31.73C22.6602 34.59 24.9802 36.91 27.8402 36.91C30.7002 36.91 33.0202 39.23 33.0202 42.09C33.0202 44.95 30.7002 47.27 27.8402 47.27H22.6602M63.0502 1.7L48.5502 16.2M63.0502 1.7H52.6902M63.0502 1.7V12.06" stroke="#7A34F3" stroke-width="2" stroke-linecap="round" stroke-linejoin="round"/>
</g>
<defs>
<clipPath id="clip0_265_6072">
<rect width="63.1" height="68.6" fill="white" transform="translate(0.950195 0.700001)"/>
</clipPath>
</defs>
</svg>
